<svg width="26" height="26" viewBox="0 0 26 26" fill="none" xmlns="http://www.w3.org/2000/svg">
<g clip-path="url(#clip0_1_556)">
<path d="M26.0506 8.73435V12.7968C26.0506 13.3578 25.5959 13.8125 25.035 13.8125H24.3671L23.9392 17.6205C23.8809 18.1394 23.4413 18.5226 22.9311 18.5228C22.8932 18.5228 22.8551 18.5206 22.8165 18.5163C22.259 18.4538 21.858 17.9509 21.9206 17.3937L22.4499 12.6836C22.5076 12.1698 22.942 11.7812 23.4592 11.7812H24.0195V9.74997H2.08203V11.7812H19.3984C19.9594 11.7812 20.4141 12.2361 20.4141 12.7968C20.4141 13.3578 19.9594 13.8125 19.3984 13.8125H3.79709L4.80002 22.1793C4.92221 23.1995 5.78926 23.9687 6.81679 23.9687H19.3661C20.4012 23.9687 21.269 23.1929 21.3847 22.1642C21.4471 21.6068 21.9498 21.2059 22.5072 21.2684C23.0646 21.3311 23.4657 21.8337 23.4032 22.3911C23.1719 24.4484 21.4364 26 19.3661 26H6.81679C4.76173 26 3.02763 24.4613 2.78305 22.4209L1.75136 13.8125H1.06641C0.505432 13.8125 0.0507812 13.3578 0.0507812 12.7968V8.73435C0.0507812 8.17337 0.505432 7.71872 1.06641 7.71872H4.6687L10.0354 0.414357C10.3675 -0.037517 11.0031 -0.134914 11.4551 0.197346C11.9072 0.529408 12.0044 1.16497 11.6723 1.61704L7.18932 7.71872H18.9497L14.4665 1.61704C14.1344 1.16497 14.2316 0.529408 14.6837 0.197346C15.1358 -0.134914 15.7713 -0.0377155 16.1036 0.414357L21.4702 7.71872H25.035C25.5959 7.71872 26.0506 8.17357 26.0506 8.73435ZM12.0352 16.8593V20.9218C12.0352 21.4828 12.4898 21.9375 13.0508 21.9375C13.6116 21.9375 14.0664 21.4828 14.0664 20.9218V16.8593C14.0664 16.2984 13.6116 15.8437 13.0508 15.8437C12.4898 15.8437 12.0352 16.2984 12.0352 16.8593ZM16.0977 16.8593V20.9218C16.0977 21.4828 16.5523 21.9375 17.1133 21.9375C17.6741 21.9375 18.1289 21.4828 18.1289 20.9218V16.8593C18.1289 16.2984 17.6741 15.8437 17.1133 15.8437C16.5523 15.8437 16.0977 16.2984 16.0977 16.8593ZM7.97266 16.8593V20.9218C7.97266 21.4828 8.42731 21.9375 8.98828 21.9375C9.54906 21.9375 10.0039 21.4828 10.0039 20.9218V16.8593C10.0039 16.2984 9.54906 15.8437 8.98828 15.8437C8.42731 15.8437 7.97266 16.2984 7.97266 16.8593Z" fill="white"/>
</g>
<defs>
<clipPath id="clip0_1_556">
<rect width="26" height="26" fill="white"/>
</clipPath>
</defs>
</svg>
