<svg width="35" height="35" viewBox="0 0 35 35" fill="none" xmlns="http://www.w3.org/2000/svg">
<path fill-rule="evenodd" clip-rule="evenodd" d="M15.0338 17.7222V26.2083C15.0338 26.3287 15.1308 26.4306 15.2556 26.4306H18.4019C18.522 26.4306 18.6237 26.3333 18.6237 26.2083V17.5833H20.906C21.0215 17.5833 21.1139 17.4954 21.1278 17.3796L21.3449 14.7824C21.3542 14.6528 21.2525 14.5417 21.1232 14.5417H18.6237V12.6991C18.6237 12.2685 18.9748 11.9167 19.4045 11.9167H21.1601C21.2802 11.9167 21.3819 11.8194 21.3819 11.6944V9.09722C21.3819 8.97685 21.2849 8.875 21.1601 8.875H18.1894C16.4476 8.875 15.0338 10.2917 15.0338 12.037V14.5417H13.463C13.3429 14.5417 13.2412 14.6389 13.2412 14.7639V17.3611C13.2412 17.4815 13.3382 17.5833 13.463 17.5833H15.0338V17.7222Z" fill="#404956"/>
<path d="M17.3116 0.305542C7.76645 0.305542 0 8.08795 0 17.6528C0 27.2176 7.76645 35 17.3116 35C26.8568 35 34.6233 27.2176 34.6233 17.6528C34.6233 8.08795 26.8568 0.305542 17.3116 0.305542ZM32.401 17.6528C32.401 25.9907 25.6325 32.7731 17.3116 32.7731C8.99078 32.7731 2.21766 25.9907 2.21766 17.6528C2.21766 9.3148 8.99078 2.53239 17.3116 2.53239C25.6325 2.53239 32.401 9.3148 32.401 17.6528Z" fill="#404956"/>
</svg>
