<svg width="36" height="35" viewBox="0 0 36 35" fill="none" xmlns="http://www.w3.org/2000/svg">
<path d="M23.6751 12.8704C23.6751 13.4445 23.2131 13.9074 22.6402 13.9074C22.0673 13.9074 21.6053 13.4398 21.6053 12.8704C21.6053 12.3009 22.0719 11.8334 22.6402 11.8334C23.2085 11.8334 23.6751 12.3009 23.6751 12.8704ZM22.3861 17.5278C22.3861 19.9352 20.4318 21.8935 18.0293 21.8935C15.6268 21.8935 13.6725 19.9352 13.6725 17.5278C13.6725 15.1204 15.6268 13.1621 18.0293 13.1621C20.4318 13.1621 22.3861 15.1204 22.3861 17.5278ZM20.8199 17.5278C20.8199 15.9861 19.5678 14.7315 18.0293 14.7315C16.4908 14.7315 15.2388 15.9861 15.2388 17.5278C15.2388 19.0695 16.4908 20.3241 18.0293 20.3241C19.5678 20.3241 20.8199 19.0695 20.8199 17.5278ZM26.8445 14.0232C26.8445 11.0834 24.4652 8.6991 21.5314 8.6991H14.2824C11.3486 8.6991 8.96924 11.0834 8.96924 14.0232V21.2871C8.96924 24.2269 11.3486 26.6111 14.2824 26.6111H21.5314C24.4652 26.6111 26.8445 24.2269 26.8445 21.2871V14.0232ZM25.0981 21.2084C25.0981 23.2269 23.4626 24.8658 21.4482 24.8658H14.3563C12.3419 24.8658 10.7064 23.2269 10.7064 21.2084V14.1019C10.7064 12.0834 12.3419 10.4445 14.3563 10.4445H21.4482C23.4626 10.4445 25.0981 12.0834 25.0981 14.1019V21.2084Z" fill="#404956"/>
<path d="M17.9047 0.305542C8.35946 0.305542 0.593018 8.08795 0.593018 17.6528C0.593018 27.2176 8.35946 35 17.9047 35C27.4499 35 35.2163 27.2176 35.2163 17.6528C35.2163 8.08795 27.4499 0.305542 17.9047 0.305542ZM17.9047 32.7731C9.5838 32.7731 2.8153 25.9907 2.8153 17.6528C2.8153 9.3148 9.5838 2.53239 17.9047 2.53239C26.2255 2.53239 32.9986 9.3148 32.9986 17.6528C32.9986 25.9907 26.2301 32.7731 17.9047 32.7731Z" fill="#404956"/>
</svg>
