<svg width="35" height="35" viewBox="0 0 35 35" fill="none" xmlns="http://www.w3.org/2000/svg">
<path d="M9.97282 13.2036H13.2855V23.8611H9.97282V13.2036ZM11.6268 7.90735C12.6848 7.90735 13.5442 8.76846 13.5442 9.82864C13.5442 10.8888 12.6848 11.7499 11.6268 11.7499C10.5688 11.7499 9.70947 10.8888 9.70947 9.82864C9.70947 8.76846 10.5688 7.90735 11.6268 7.90735ZM15.3553 23.8657H18.6587V18.5925C18.6587 17.2036 18.922 15.8564 20.6407 15.8564C22.3594 15.8564 22.3594 17.4444 22.3594 18.6851V23.8657H25.6628V18.0185C25.6628 15.1481 25.0437 12.9398 21.6987 12.9398C20.0863 12.9398 19.0098 13.824 18.5663 14.662H18.5247V13.2036H15.3507V23.8611L15.3553 23.8657Z" fill="#404956"/>
<path d="M17.6884 0.305542C8.14316 0.305542 0.376709 8.08795 0.376709 17.6528C0.376709 27.2176 8.14316 35 17.6884 35C27.2336 35 35 27.2176 35 17.6528C35 8.08795 27.2336 0.305542 17.6884 0.305542ZM17.6884 32.7731C9.36749 32.7731 2.59899 25.9907 2.59899 17.6481C2.59899 9.30554 9.36749 2.52776 17.6884 2.52776C26.0092 2.52776 32.7777 9.31017 32.7777 17.6481C32.7777 25.9861 26.0092 32.7731 17.6884 32.7731Z" fill="#404956"/>
</svg>
