<svg width="249" height="33" viewBox="0 0 249 33" fill="none" xmlns="http://www.w3.org/2000/svg">
<path d="M52.72 7.6123L48.25 9.63711C47.65 7.23205 46.38 6.03428 44.43 6.03428C42.35 6.03428 41.32 6.94687 41.32 8.77205C41.32 9.49452 41.51 10.1124 41.9 10.6162C42.29 11.1201 43.17 11.5574 44.53 11.9281C46.81 12.5555 48.49 13.1829 49.55 13.8198C50.61 14.4567 51.5 15.4834 52.23 16.8998C52.96 18.3162 53.32 19.8943 53.32 21.6434C53.32 24.3812 52.54 26.7577 50.98 28.754C49.42 30.7503 47.11 31.7579 44.05 31.7579C41.75 31.7579 39.8 31.0545 38.19 29.6381C36.58 28.2216 35.51 26.1208 35 23.3355L39.86 21.843C40.41 24.6758 41.92 26.0923 44.42 26.0923C45.62 26.0923 46.52 25.7786 47.11 25.1512C47.7 24.5237 47.99 23.7728 47.99 22.8982C47.99 22.0236 47.72 21.3202 47.19 20.8354C46.65 20.3505 45.62 19.8847 44.09 19.457C41.24 18.6585 39.2 17.5652 37.99 16.1773C36.78 14.7894 36.17 12.7646 36.17 10.0934C36.17 7.42218 36.89 5.12169 38.34 3.26799C39.79 1.41428 41.75 0.492188 44.24 0.492188C48.64 0.492188 51.46 2.86873 52.72 7.63131V7.6123Z" fill="#118B91"/>
<path d="M74.43 0.938965V19.8372C74.43 22.8887 74.17 25.1607 73.66 26.6531C73.15 28.1456 72.2 29.3624 70.81 30.3225C69.42 31.2826 67.65 31.7579 65.5 31.7579C63.35 31.7579 61.63 31.3301 60.35 30.4651C59.07 29.6095 58.12 28.3832 57.48 26.7957C56.85 25.2082 56.53 22.8887 56.53 19.8372V0.938965H62.23V19.8372C62.23 21.4723 62.33 22.67 62.53 23.44C62.73 24.21 63.14 24.8184 63.75 25.2747C64.36 25.731 65.1 25.9497 65.99 25.9497C66.98 25.9497 67.78 25.731 68.4 25.2842C69.02 24.8374 69.43 24.2481 69.63 23.5161C69.83 22.7841 69.93 21.5578 69.93 19.8372V0.938965H74.43Z" fill="#118B91"/>
<path d="M88.5301 31.2826L83.0001 6.53809V31.2826H78.6001V0.938965H86.7801L90.7101 19.1052L94.8501 0.938965H103.05V31.2826H97.7601V6.53809L92.1201 31.2826H88.5301Z" fill="#118B91"/>
<path d="M118.53 0.938965L125.55 31.2826H119.91L118.53 25.0371H111.28L109.88 31.2826H105.28L112.46 0.938965H118.54H118.53ZM112.54 19.4379H117.29L114.94 8.79105L112.54 19.4379Z" fill="#118B91"/>
<path d="M143.44 7.6123L138.97 9.63711C138.37 7.23205 137.1 6.03428 135.15 6.03428C133.07 6.03428 132.04 6.94687 132.04 8.77205C132.04 9.49452 132.23 10.1124 132.62 10.6162C133.01 11.1201 133.89 11.5574 135.25 11.9281C137.53 12.5555 139.21 13.1829 140.27 13.8198C141.33 14.4567 142.22 15.4834 142.95 16.8998C143.68 18.3162 144.04 19.8943 144.04 21.6434C144.04 24.3812 143.26 26.7577 141.7 28.754C140.14 30.7503 137.83 31.7579 134.77 31.7579C132.47 31.7579 130.52 31.0545 128.91 29.6381C127.3 28.2216 126.23 26.1208 125.72 23.3355L130.58 21.843C131.13 24.6758 132.64 26.0923 135.14 26.0923C136.34 26.0923 137.24 25.7786 137.83 25.1512C138.42 24.5237 138.71 23.7728 138.71 22.8982C138.71 22.0236 138.44 21.3202 137.91 20.8354C137.37 20.3505 136.34 19.8847 134.81 19.457C131.96 18.6585 129.92 17.5652 128.71 16.1773C127.5 14.7894 126.89 12.7646 126.89 10.0934C126.89 7.42218 127.61 5.12169 129.06 3.26799C130.51 1.41428 132.47 0.492188 134.96 0.492188C139.36 0.492188 142.18 2.86873 143.44 7.63131V7.6123Z" fill="#118B91"/>
<path d="M164.79 0.938965V31.2826H159.63V18.763H152.64V31.2826H147.48V0.938965H152.64V12.7646H159.63V0.938965H164.79Z" fill="#118B91"/>
<path d="M185.02 31.2826H182.21V4.27563H175.79V0.938965H191.45V4.27563H185.01V31.2921L185.02 31.2826Z" fill="#404956"/>
<path d="M209.07 27.9555V31.2921H194.57V0.938965H208.76V4.27563H197.38V13.9244H206.41V17.0139H197.38V27.9555H209.07Z" fill="#404956"/>
<path d="M226.43 21.0825L228.99 21.862C227.76 28.5638 224.99 31.91 220.68 31.91C217.84 31.91 215.62 30.3605 214.01 27.2615C212.4 24.1625 211.59 20.3505 211.59 15.8256C211.59 11.3007 212.43 7.40313 214.12 4.5703C215.81 1.73746 218.07 0.321045 220.9 0.321045C225.1 0.321045 227.8 3.57215 229 10.0839L226.36 10.7968C225.4 5.9677 223.57 3.55314 220.89 3.55314C218.91 3.55314 217.37 4.67486 216.28 6.91832C215.19 9.16177 214.65 12.3178 214.65 16.3769C214.65 20.0938 215.21 23.0788 216.32 25.3222C217.44 27.5657 218.91 28.6874 220.75 28.6874C223.61 28.6874 225.5 26.1493 226.43 21.0825Z" fill="#404956"/>
<path d="M248.48 31.2826H245.67V16.8333H235.28V31.2826H232.47V0.938965H235.28V13.4966H245.67V0.938965H248.48V31.2826Z" fill="#404956"/>
<path d="M25.6654 0.321045H2.25934C1.00911 0.321045 0 1.28032 0 2.46881V16.6118C0 17.7833 1.00018 18.7341 2.23255 18.7341H8.83196V26.2725H0V32.0621H12.6898C13.9222 32.0621 14.9313 31.1113 14.9313 29.9313V15.0668C14.9313 13.8952 13.9311 12.9445 12.6987 12.9445H6.09039V6.11067H25.6654V0.321045Z" fill="#118B91"/>
<path d="M25.6654 12.9446H22.1023V32.0537H25.6654V12.9446Z" fill="#404956"/>
<path d="M2.35757 19.2519C0.741206 19.2519 0 17.9446 0 17.9446V25.7631H8.30508V19.2434H2.35757V19.2519Z" fill="#404956"/>
<path d="M6.61743 6.62842V12.418H13.2168C14.4581 12.418 15.4673 13.3773 15.4673 14.5573V29.7699C15.2887 31.6206 14.0384 32.062 14.0384 32.062H21.5576V12.418H25.6566V6.62842H6.61743Z" fill="#F16A4F"/>
</svg>
