<svg width="27" height="26" viewBox="0 0 27 26" fill="none" xmlns="http://www.w3.org/2000/svg">
<path fill-rule="evenodd" clip-rule="evenodd" d="M4.76185 7.70357C6.46819 7.29686 7.738 5.75007 7.738 3.90402C7.738 1.74788 6.00579 0 3.869 0C1.7322 0 0 1.74788 0 3.90402C0 5.75007 1.26981 7.29686 2.97615 7.70357V17.7182C2.97615 20.2061 4.97485 22.2229 7.44038 22.2229H12.2788L10.8269 23.688C10.4782 24.0399 10.4782 24.6102 10.8269 24.9621C11.1756 25.3139 11.7408 25.3139 12.0895 24.9621L15.0656 21.959C15.4143 21.6071 15.4143 21.0368 15.0656 20.6849L12.0895 17.6819C11.7408 17.33 11.1756 17.33 10.8269 17.6819C10.4782 18.0337 10.4782 18.604 10.8269 18.9559L12.2788 20.421H7.44038C5.96107 20.421 4.76185 19.2109 4.76185 17.7182V7.70357ZM3.869 6.00619C5.01958 6.00619 5.95231 5.06502 5.95231 3.90402C5.95231 2.74303 5.01958 1.80186 3.869 1.80186C2.71842 1.80186 1.78569 2.74303 1.78569 3.90402C1.78569 5.06502 2.71842 6.00619 3.869 6.00619Z" fill="#A9A9A9"/>
<path fill-rule="evenodd" clip-rule="evenodd" d="M15.3633 1.53798C15.712 1.18615 15.712 0.615703 15.3633 0.263873C15.0146 -0.0879576 14.4494 -0.0879576 14.1007 0.263873L11.1246 3.26697C10.7759 3.6188 10.7759 4.18924 11.1246 4.54107L14.1007 7.54416C14.4494 7.89599 15.0146 7.89599 15.3633 7.54416C15.712 7.19233 15.712 6.62189 15.3633 6.27006L13.9114 4.80494H18.7498C20.2291 4.80494 21.4284 6.01502 21.4284 7.50773V17.5224C19.7221 17.9291 18.4522 19.4759 18.4522 21.322C18.4522 23.4781 20.1844 25.226 22.3212 25.226C24.458 25.226 26.1902 23.4781 26.1902 21.322C26.1902 19.4759 24.9203 17.9291 23.214 17.5224V7.50773C23.214 5.01988 21.2154 3.00309 18.7498 3.00309H13.9114L15.3633 1.53798ZM20.2379 21.322C20.2379 20.161 21.1706 19.2198 22.3212 19.2198C23.4718 19.2198 24.4045 20.161 24.4045 21.322C24.4045 22.483 23.4718 23.4241 22.3212 23.4241C21.1706 23.4241 20.2379 22.483 20.2379 21.322Z" fill="#A9A9A9"/>
</svg>
