<svg width="12" height="13" viewBox="0 0 12 13" fill="none" xmlns="http://www.w3.org/2000/svg">
<g clip-path="url(#clip0_1_334)">
<path d="M6 12.562C2.69149 12.562 0 9.87052 0 6.56201C0 3.2535 2.69149 0.562012 6 0.562012C9.30851 0.562012 12 3.2535 12 6.56201C12 9.87052 9.30851 12.562 6 12.562ZM7.85351 6.2085L5.3535 3.70852C5.256 3.61102 5.12801 3.56201 4.99999 3.56201C4.872 3.56201 4.74398 3.61102 4.64648 3.70852C4.45099 3.90401 4.45099 4.22002 4.64648 4.41551L6.79301 6.56201L4.64651 8.70851C4.45102 8.904 4.45102 9.22001 4.64651 9.4155C4.842 9.611 5.15801 9.611 5.3535 9.4155L7.85351 6.9155C8.049 6.72 8.049 6.40402 7.85351 6.2085Z" fill="#F16A4F"/>
</g>
<defs>
<clipPath id="clip0_1_334">
<rect width="12" height="12" fill="white" transform="matrix(1 0 0 -1 0 12.562)"/>
</clipPath>
</defs>
</svg>
