<svg width="42" height="42" viewBox="0 0 42 42" fill="none" xmlns="http://www.w3.org/2000/svg">
<path d="M31.2293 17.9402C31.2293 12.2965 26.6356 7.71094 21 7.71094C15.3645 7.71094 10.7708 12.2965 10.7708 17.9402C10.7708 23.5758 15.3563 28.1695 21 28.1695C26.6438 28.1695 31.2293 23.5758 31.2293 17.9402ZM21 26.8488C16.0864 26.8488 12.0833 22.8539 12.0833 17.932C12.0833 13.0102 16.0864 9.02344 21 9.02344C25.9137 9.02344 29.9168 13.0184 29.9168 17.9402C29.9168 22.8621 25.9137 26.8488 21 26.8488Z" fill="#404956"/>
<path d="M33.5343 28.5222C33.9035 28.3335 34.2316 28.0874 34.4859 27.7429C35.1503 26.8324 34.9945 25.6429 34.8468 24.4863C34.7484 23.7398 34.6499 22.9605 34.8222 22.4355C34.9781 21.9433 35.5031 21.3937 36.0035 20.8687C36.7828 20.0484 37.6605 19.1214 37.6605 17.9484C37.6605 16.7753 36.791 15.832 36.0117 15.0116C35.5113 14.4784 34.9863 13.937 34.8304 13.4449C34.6582 12.9199 34.7566 12.1406 34.855 11.3941C35.0027 10.2374 35.1503 9.04798 34.4941 8.13743C33.8296 7.21868 32.6402 6.9972 31.4917 6.77571C30.7535 6.63626 29.9906 6.49681 29.5558 6.17688C29.121 5.86517 28.7601 5.19251 28.4074 4.53626C27.8742 3.55188 27.2589 2.43626 26.1679 2.07532C25.1179 1.73079 24.0433 2.23938 23.0015 2.73157C22.3042 3.0597 21.5906 3.39603 21.0164 3.39603C20.4421 3.39603 19.7285 3.0597 19.0312 2.73157C17.9894 2.23938 16.9148 1.73079 15.8648 2.07532C14.7656 2.42806 14.1914 3.50267 13.6253 4.53626C13.2726 5.18431 12.9035 5.86517 12.4769 6.17688C12.0339 6.49681 11.2792 6.64446 10.541 6.77571C9.39253 6.98899 8.20308 7.21868 7.53862 8.13743C6.87417 9.04798 7.03003 10.2374 7.17769 11.3941C7.27612 12.1406 7.37456 12.9199 7.20229 13.4449C7.04644 13.937 6.52144 14.4866 6.02104 15.0116C5.24175 15.832 4.36401 16.7589 4.36401 17.932C4.36401 19.105 5.24995 20.032 6.02104 20.8523C6.52144 21.3855 7.04644 21.9269 7.20229 22.4191C7.37456 22.9441 7.27612 23.7234 7.17769 24.4699C7.03003 25.6265 6.88237 26.8159 7.53862 27.7265C7.79292 28.071 8.12104 28.3253 8.49019 28.5058L4.91362 34.6991C4.78237 34.9288 4.79878 35.2159 4.96284 35.4292C5.1269 35.6425 5.39761 35.7327 5.6519 35.6671L10.9347 34.248L12.3539 39.5308C12.4195 39.7851 12.641 39.9738 12.9035 40.0148C12.9363 40.0148 12.9609 40.023 12.9855 40.023C13.2152 40.023 13.4367 39.8999 13.5515 39.6949L16.9066 33.8788C17.6203 33.7968 18.3421 33.4605 19.0394 33.1324C19.7367 32.8042 20.4503 32.4679 21.0246 32.4679C21.5988 32.4679 22.3124 32.8042 23.0097 33.1324C23.707 33.4605 24.4289 33.805 25.1425 33.8788L28.4976 39.6949C28.6124 39.8999 28.8339 40.023 29.0636 40.023C29.0882 40.023 29.121 40.023 29.1457 40.0148C29.4082 39.982 29.6214 39.7933 29.6953 39.5308L31.1144 34.248L36.3972 35.6671C36.6515 35.7327 36.9222 35.6425 37.0863 35.4292C37.2503 35.2159 37.2667 34.9288 37.1355 34.6991L33.5343 28.5222ZM13.1824 37.6769L12.0093 33.2882C11.9191 32.9355 11.5582 32.7304 11.2054 32.8206L6.81675 33.9937L9.73706 28.9324C9.99136 28.9898 10.2539 29.039 10.5164 29.0882C11.2546 29.2277 12.0175 29.3671 12.4523 29.687C12.8871 29.9988 13.248 30.6714 13.6007 31.3277C14.0765 32.2054 14.6097 33.1816 15.4957 33.6409L13.1824 37.6769ZM20.9999 31.1636C20.1304 31.1636 19.2773 31.5656 18.457 31.9511C17.6449 32.3366 16.8082 32.7304 16.2585 32.5499C15.6597 32.3531 15.2085 31.5163 14.7656 30.7124C14.339 29.9331 13.9042 29.1292 13.2316 28.637C12.5507 28.1449 11.6402 27.9726 10.7625 27.8085C9.86831 27.6363 8.94136 27.464 8.57222 26.9718C8.21948 26.4878 8.33433 25.5527 8.44917 24.6585C8.56401 23.7644 8.67886 22.8456 8.41636 22.0335C8.16206 21.2624 7.53862 20.598 6.93979 19.9663C6.29995 19.2937 5.6355 18.5964 5.6355 17.9484C5.6355 17.3003 6.29995 16.6031 6.93979 15.9304C7.54683 15.2906 8.17026 14.6343 8.41636 13.8632C8.67886 13.0511 8.56401 12.1324 8.44917 11.2382C8.33433 10.3359 8.21948 9.40892 8.57222 8.92493C8.93315 8.42454 9.86011 8.25227 10.7625 8.08821C11.6402 7.92415 12.5507 7.75188 13.2316 7.2597C13.9042 6.77571 14.339 5.9636 14.7656 5.18431C15.2085 4.3722 15.6597 3.54368 16.2585 3.34681C16.8164 3.16634 17.6531 3.56009 18.457 3.94563C19.2773 4.33118 20.1304 4.73313 20.9999 4.73313C21.8695 4.73313 22.7226 4.33118 23.5429 3.94563C24.355 3.56009 25.1917 3.16634 25.7414 3.34681C26.3402 3.54368 26.7914 4.3804 27.2343 5.18431C27.6609 5.9636 28.0957 6.76751 28.7683 7.2597C29.4492 7.75188 30.3597 7.92415 31.2374 8.08821C32.1316 8.26048 33.0585 8.43274 33.4277 8.92493C33.7804 9.40892 33.6656 10.3441 33.5507 11.2382C33.4359 12.1324 33.321 13.0511 33.5835 13.8632C33.8378 14.6343 34.4613 15.2988 35.0601 15.9304C35.6999 16.6031 36.3644 17.3003 36.3644 17.9484C36.3644 18.5964 35.6999 19.2937 35.0601 19.9663C34.4531 20.6062 33.8296 21.2624 33.5835 22.0335C33.321 22.8456 33.4359 23.7644 33.5507 24.6585C33.6656 25.5609 33.7804 26.4878 33.4277 26.9718C33.0667 27.4722 32.1398 27.6445 31.2374 27.8085C30.3597 27.9726 29.4492 28.1449 28.7683 28.637C28.0957 29.121 27.6609 29.9331 27.2343 30.7124C26.7914 31.5245 26.3402 32.3531 25.7414 32.5499C25.1835 32.7304 24.3468 32.3366 23.5429 31.9511C22.7226 31.5656 21.8695 31.1636 20.9999 31.1636ZM30.7945 32.8206C30.4417 32.7304 30.0808 32.9355 29.9906 33.2882L28.8175 37.6769L26.496 33.6574C27.3738 33.2062 27.8906 32.2628 28.391 31.3441C28.7437 30.696 29.1128 30.0152 29.5394 29.7034C29.9824 29.3835 30.7371 29.2359 31.4753 29.1046C31.7378 29.0554 32.0003 29.0062 32.2546 28.9488L35.1749 34.0101L30.7945 32.8206Z" fill="#404956"/>
<path d="M27.1522 13.9207C26.8979 13.6664 26.4796 13.6664 26.2253 13.9207L19.5808 20.5652L15.7827 16.7672C15.5284 16.5129 15.1101 16.5129 14.8558 16.7672C14.6015 17.0215 14.6015 17.4398 14.8558 17.6941L19.1214 21.9598C19.2444 22.0828 19.4085 22.1484 19.589 22.1484C19.7694 22.1484 19.9335 22.0828 20.0565 21.9598L27.1522 14.8477C27.4065 14.5934 27.4065 14.175 27.1522 13.9207V13.9207Z" fill="#404956"/>
</svg>
