<svg width="26" height="26" viewBox="0 0 26 26" fill="none" xmlns="http://www.w3.org/2000/svg">
<path d="M24.8759 5.13409C24.1474 3.97899 23.0806 3.07658 21.8207 2.54983C20.3931 1.95061 18.7897 1.84275 17.1839 2.2387C15.7123 2.60158 14.279 3.38864 13 4.5304C11.7208 3.38854 10.2873 2.60143 8.81558 2.23859C7.20972 1.8425 5.6062 1.95046 4.17864 2.55009C2.91871 3.077 1.8519 3.97959 1.12359 5.13485C0.360857 6.3406 -0.0271624 7.80691 0.00147824 9.37509C0.128634 16.3466 10.5135 22.686 12.594 23.8861C12.7175 23.9573 12.8575 23.9948 13 23.9948C13.1425 23.9948 13.2825 23.9573 13.406 23.8861C15.4867 22.6858 25.8724 16.3453 25.9985 9.37387C26.0268 7.80579 25.6386 6.33964 24.8759 5.13409ZM24.3738 9.34467C24.3332 11.5987 22.8305 14.2267 20.0288 16.9443C17.4341 19.461 14.4828 21.3578 13 22.2405C11.5171 21.358 8.56624 19.4614 5.97183 16.9446C3.16992 14.2272 1.66731 11.5995 1.62617 9.34543C1.58128 6.88422 2.77073 4.904 4.80792 4.04829C5.47558 3.76942 6.19235 3.62717 6.9159 3.62995C8.7844 3.62995 10.7609 4.53447 12.4206 6.22213C12.4962 6.29901 12.5864 6.36008 12.6858 6.40176C12.7853 6.44344 12.892 6.46491 12.9999 6.46491C13.1077 6.46491 13.2145 6.44344 13.3139 6.40176C13.4134 6.36008 13.5036 6.29901 13.5792 6.22213C15.8849 3.87756 18.802 3.04459 21.1913 4.04813C23.2287 4.90354 24.4183 6.88345 24.3738 9.34452V9.34467Z" fill="#A9A9A9"/>
</svg>
