<svg width="35" height="35" viewBox="0 0 35 35" fill="none" xmlns="http://www.w3.org/2000/svg">
<g clip-path="url(#clip0_1_394)">
<path d="M7.51929 8.61353C7.14194 8.61353 6.83569 8.91978 6.83569 9.29712C6.83569 9.67446 7.14194 9.98071 7.51929 9.98071C7.89663 9.98071 8.20288 9.67446 8.20288 9.29712C8.20288 8.91978 7.89663 8.61353 7.51929 8.61353Z" fill="#404956"/>
<path d="M32.1921 14.46L31.203 12.4817C30.8533 11.7823 30.1505 11.3479 29.3688 11.3479H23.6514V6.56292C23.6514 5.43219 22.7315 4.51221 21.6007 4.51221H2.05071C0.919912 4.51221 0 5.43212 0 6.56292V24.3356C0 25.4663 0.919912 26.3863 2.05071 26.3863H4.10143C4.10143 27.4359 4.49825 28.3944 5.1491 29.1206H0.683594C0.306045 29.1206 0 29.4267 0 29.8042C0 30.1816 0.306045 30.4877 0.683594 30.4877H34.315C34.6926 30.4877 34.9986 30.1816 34.9986 29.8042C34.9986 29.4267 34.6926 29.1206 34.315 29.1206H32.5838C33.2347 28.3943 33.6314 27.4359 33.6314 26.3863C33.6314 26.3474 33.6296 26.3086 33.6285 26.2697C34.4256 25.9883 34.9986 25.2278 34.9986 24.3356V20.5568C34.9986 19.7591 35.1565 20.5039 32.1921 14.46ZM31.1583 15.4492L33.209 19.5507H26.3856V15.4492H31.1583ZM1.36712 20.9178H2.73424V22.2849H1.36712V20.9178ZM8.20278 29.1206C6.69512 29.1206 5.46854 27.8939 5.46854 26.3863C5.46854 26.2001 5.487 26.0168 5.52392 25.8386C5.78101 24.5717 6.90765 23.652 8.20278 23.652C9.49792 23.652 10.6246 24.5716 10.8816 25.8386C10.8819 25.8396 10.8821 25.8405 10.8823 25.8415C10.9186 26.0168 10.937 26.2001 10.937 26.3863C10.937 27.894 9.71045 29.1206 8.20278 29.1206ZM8.20278 22.2849C6.45135 22.2849 4.90567 23.4069 4.33583 25.0191H2.05071C1.67378 25.0191 1.36712 24.7125 1.36712 24.3355V23.6519H3.41783C3.79538 23.6519 4.10143 23.3458 4.10143 22.9683V20.2341C4.10143 19.8566 3.79538 19.5505 3.41783 19.5505H1.36712V6.56292C1.36712 6.18599 1.67378 5.87933 2.05071 5.87933H21.6007C21.9776 5.87933 22.2843 6.18599 22.2843 6.56292C22.2843 7.07145 22.2843 23.3799 22.2843 25.0192H12.0694C11.4985 23.4061 9.95347 22.2849 8.20278 22.2849ZM11.2565 29.1206C11.9074 28.3943 12.3041 27.4359 12.3041 26.3863C12.829 26.3863 25.2051 26.3863 25.4286 26.3863C25.4286 27.4359 25.8254 28.3944 26.4763 29.1206H11.2565ZM29.53 29.1206C28.0224 29.1206 26.7958 27.8939 26.7958 26.3863C26.7958 26.2001 26.8142 26.0168 26.8512 25.8386C27.1082 24.5717 28.2349 23.652 29.53 23.652C30.8252 23.652 31.9519 24.5716 32.2089 25.8386C32.2091 25.8396 32.2093 25.8405 32.2095 25.8415C32.2459 26.0168 32.2643 26.2001 32.2643 26.3863C32.2643 27.894 31.0377 29.1206 29.53 29.1206ZM33.6314 24.3356C33.6314 24.563 33.5194 24.7642 33.3482 24.8886C32.7417 23.3458 31.2331 22.285 29.53 22.285C27.7786 22.285 26.2329 23.4069 25.6631 25.0192H23.6513V12.715H29.3687C29.6293 12.715 29.8635 12.8599 29.9802 13.0931L30.4747 14.0821H25.7021C25.3245 14.0821 25.0185 14.3882 25.0185 14.7657V20.2342C25.0185 20.6117 25.3245 20.9178 25.7021 20.9178H33.6314V24.3356Z" fill="#404956"/>
<path d="M18.8664 8.61353H10.2534C9.87587 8.61353 9.56982 8.91964 9.56982 9.29712C9.56982 9.6746 9.87587 9.98071 10.2534 9.98071H18.8664C19.2439 9.98071 19.55 9.6746 19.55 9.29712C19.55 8.91964 19.2438 8.61353 18.8664 8.61353Z" fill="#404956"/>
<path d="M18.8665 11.3479H12.9878C12.6102 11.3479 12.3042 11.654 12.3042 12.0315C12.3042 12.409 12.6102 12.7151 12.9878 12.7151H18.8665C19.244 12.7151 19.5501 12.409 19.5501 12.0315C19.5501 11.654 19.244 11.3479 18.8665 11.3479Z" fill="#404956"/>
<path d="M29.53 25.0193C28.7761 25.0193 28.1628 25.6326 28.1628 26.3864C28.1628 27.1403 28.7762 27.7535 29.53 27.7535C30.2838 27.7535 30.8971 27.1402 30.8971 26.3864C30.8971 25.6325 30.2838 25.0193 29.53 25.0193Z" fill="#404956"/>
<path d="M8.20281 25.0193C7.44895 25.0193 6.83569 25.6326 6.83569 26.3864C6.83569 27.1403 7.44901 27.7535 8.20281 27.7535C8.95668 27.7535 9.56993 27.1402 9.56993 26.3864C9.56993 25.6325 8.95668 25.0193 8.20281 25.0193Z" fill="#404956"/>
</g>
<defs>
<clipPath id="clip0_1_394">
<rect width="35" height="35" fill="white"/>
</clipPath>
</defs>
</svg>
