<svg width="44" height="44" viewBox="0 0 44 44" fill="none" xmlns="http://www.w3.org/2000/svg">
<path d="M10.652 9.96452C16.3483 4.47359 24.8254 4.69245 30.0975 9.96452C35.1389 15.006 35.4471 22.9882 31.0221 28.3892L38.8479 36.2159L36.9034 38.1604L29.0768 30.3346C23.6758 34.7596 15.6935 34.4514 10.652 29.41C5.37997 24.1379 5.13207 15.2856 10.652 9.96452ZM28.1529 11.9091C23.8572 7.6133 16.8924 7.6133 12.5966 11.9091C8.30082 16.2048 8.30082 23.1697 12.5966 27.4654C16.8924 31.7612 23.8572 31.7612 28.1529 27.4654C32.4487 23.1697 32.4487 16.2048 28.1529 11.9091Z" fill="white"/>
</svg>
