<svg width="24" height="27" viewBox="0 0 24 27" fill="none" xmlns="http://www.w3.org/2000/svg">
<path d="M11.8403 13.192C13.6932 13.192 15.2975 12.5602 16.6088 11.3138C17.9196 10.0675 18.5843 8.54264 18.5843 6.78098C18.5843 5.01993 17.9198 3.49485 16.6085 2.24818C15.2973 1.00212 13.693 0.370361 11.8403 0.370361C9.98709 0.370361 8.38299 1.00212 7.07199 2.24838C5.76099 3.49464 5.09619 5.01973 5.09619 6.78098C5.09619 8.54264 5.76099 10.0677 7.07199 11.314C8.38342 12.56 9.98773 13.192 11.8403 13.192ZM8.23239 3.35127C9.23834 2.395 10.4184 1.93017 11.8403 1.93017C13.2619 1.93017 14.4422 2.395 15.4484 3.35127C16.4543 4.30775 16.9435 5.42973 16.9435 6.78098C16.9435 8.13264 16.4543 9.25441 15.4484 10.2109C14.4422 11.1674 13.2619 11.6322 11.8403 11.6322C10.4188 11.6322 9.23877 11.1672 8.23239 10.2109C7.22623 9.25462 6.73703 8.13264 6.73703 6.78098C6.73703 5.42973 7.22623 4.30775 8.23239 3.35127Z" fill="#FFFBFB"/>
<path d="M23.6408 20.8377C23.603 20.3191 23.5265 19.7533 23.414 19.1559C23.3003 18.5539 23.154 17.9849 22.9788 17.4649C22.7977 16.9273 22.5518 16.3965 22.2474 15.8878C21.9318 15.3598 21.561 14.9001 21.1449 14.5217C20.7097 14.1259 20.1769 13.8077 19.5608 13.5756C18.9469 13.3447 18.2665 13.2277 17.5387 13.2277C17.2529 13.2277 16.9764 13.3392 16.4426 13.6696C16.114 13.8733 15.7297 14.1089 15.3008 14.3694C14.934 14.5916 14.4371 14.7997 13.8234 14.9882C13.2246 15.1724 12.6166 15.2658 12.0163 15.2658C11.4165 15.2658 10.8085 15.1724 10.2093 14.9882C9.59619 14.7999 9.09909 14.5918 8.73294 14.3696C8.30804 14.1115 7.92352 13.876 7.59006 13.6694C7.05664 13.339 6.78021 13.2275 6.49438 13.2275C5.76636 13.2275 5.08618 13.3447 4.47244 13.5758C3.85678 13.8075 3.32379 14.1257 2.88821 14.5219C2.47208 14.9005 2.10123 15.36 1.78592 15.8878C1.48193 16.3965 1.23584 16.9271 1.05469 17.4651C0.87973 17.9851 0.733398 18.5539 0.619751 19.1559C0.506958 19.7525 0.430695 20.3185 0.392883 20.8383C0.355713 21.3466 0.336914 21.8756 0.336914 22.4101C0.336914 23.7995 0.801544 24.9244 1.71777 25.7539C2.62268 26.5725 3.81982 26.9876 5.27609 26.9876H18.7583C20.2141 26.9876 21.4112 26.5725 22.3164 25.7539C23.2328 24.925 23.6974 23.7997 23.6974 22.4099C23.6972 21.8736 23.6782 21.3446 23.6408 20.8377ZM21.185 24.6238C20.5871 25.1648 19.7933 25.4278 18.7581 25.4278H5.27609C4.24066 25.4278 3.44684 25.1648 2.84912 24.624C2.26273 24.0934 1.97775 23.369 1.97775 22.4101C1.97775 21.9114 1.99506 21.4189 2.02966 20.9462C2.06342 20.4823 2.13242 19.9728 2.23474 19.4314C2.33578 18.8967 2.46439 18.3949 2.61734 17.9407C2.7641 17.5051 2.96426 17.0737 3.21249 16.6583C3.4494 16.2623 3.72198 15.9225 4.02277 15.6488C4.30411 15.3927 4.65872 15.1831 5.07657 15.026C5.46301 14.8806 5.89731 14.801 6.36877 14.789C6.42624 14.818 6.52856 14.8734 6.69433 14.9762C7.03164 15.1852 7.42044 15.4236 7.85025 15.6845C8.33474 15.9782 8.95895 16.2434 9.70471 16.4722C10.4671 16.7066 11.2447 16.8256 12.0165 16.8256C12.7884 16.8256 13.5662 16.7066 14.3282 16.4724C15.0746 16.2432 15.6985 15.9782 16.1837 15.6841C16.6235 15.4169 17.0014 15.1854 17.3387 14.9762C17.5045 14.8737 17.6068 14.818 17.6643 14.789C18.136 14.801 18.5703 14.8806 18.9569 15.026C19.3746 15.1831 19.7292 15.3929 20.0105 15.6488C20.3113 15.9223 20.5839 16.2621 20.8208 16.6585C21.0692 17.0737 21.2696 17.5053 21.4162 17.9405C21.5693 18.3953 21.6981 18.8969 21.799 19.4312C21.9011 19.9736 21.9703 20.4833 22.0041 20.9464V20.9468C22.0389 21.4177 22.0564 21.9099 22.0566 22.4101C22.0564 23.3692 21.7714 24.0934 21.185 24.6238Z" fill="#FFFBFB"/>
</svg>
