<svg width="36" height="35" viewBox="0 0 36 35" fill="none" xmlns="http://www.w3.org/2000/svg">
<path d="M21.4496 18.4537C21.0892 18.2361 20.6179 17.9953 20.1929 18.1713C19.8649 18.3055 19.657 18.8194 19.4444 19.0787C19.3336 19.2129 19.2042 19.2361 19.0379 19.1666C17.8089 18.6759 16.871 17.8564 16.1919 16.7222C16.0764 16.5463 16.0995 16.4074 16.2381 16.2453C16.4413 16.0046 16.7001 15.7314 16.7555 15.4027C16.811 15.0787 16.6585 14.699 16.5245 14.4074C16.3536 14.037 16.1595 13.5092 15.7899 13.3009C15.448 13.1064 14.9999 13.2176 14.6996 13.4629C14.1775 13.8888 13.9234 14.5601 13.9326 15.2222C13.9326 15.412 13.9557 15.5972 14.0019 15.7824C14.1082 16.2176 14.3068 16.6296 14.5379 17.0139C14.7088 17.3055 14.8936 17.5926 15.0969 17.8657C15.7529 18.7592 16.5707 19.537 17.5178 20.1157C17.9891 20.4074 18.4973 20.662 19.0286 20.8333C19.62 21.0277 20.1467 21.2314 20.7843 21.1111C21.4542 20.9861 22.1103 20.5694 22.3782 19.9259C22.4568 19.7361 22.4983 19.5231 22.4521 19.3194C22.3597 18.9027 21.7961 18.6527 21.4588 18.4537H21.4496Z" fill="#404956"/>
<path d="M18.1784 8.42126C13.3319 8.42126 9.39091 12.3703 9.39091 17.2268C9.39091 18.7129 9.76977 20.1759 10.4951 21.4815L9.21997 26.25L14.0064 24.9676C15.2908 25.6666 16.7277 26.037 18.183 26.037C23.0296 26.037 26.9705 22.0879 26.9705 17.2315C26.9705 12.375 23.0296 8.42589 18.183 8.42589L18.1784 8.42126ZM18.1784 24.3703C16.9033 24.3703 15.6466 24.0231 14.5378 23.3611L14.2374 23.1805L11.567 23.8981L12.2785 21.2361L12.0937 20.9305C11.4099 19.8102 11.0495 18.5277 11.0495 17.2268C11.0495 13.287 14.2467 10.0833 18.1784 10.0833C22.1102 10.0833 25.3073 13.287 25.3073 17.2268C25.3073 21.1666 22.1102 24.3703 18.1784 24.3703Z" fill="#404956"/>
<path d="M18.0953 0C8.55014 0 0.783691 7.78241 0.783691 17.3472C0.783691 26.912 8.55014 34.6944 18.0953 34.6944C27.6405 34.6944 35.407 26.912 35.407 17.3472C35.407 7.78241 27.6405 0 18.0953 0ZM18.0953 32.4676C9.77447 32.4676 3.00599 25.6852 3.00599 17.3472C3.00599 9.00926 9.77447 2.22685 18.0953 2.22685C26.4162 2.22685 33.1847 9.00926 33.1847 17.3472C33.1847 25.6852 26.4162 32.4676 18.0953 32.4676Z" fill="#404956"/>
</svg>
