<svg width="35" height="35" viewBox="0 0 35 35" fill="none" xmlns="http://www.w3.org/2000/svg">
<path d="M26.7473 15.2407C26.7473 13.0046 24.9362 11.1898 22.7047 11.1898H12.2955C10.064 11.1898 8.25293 13.0046 8.25293 15.2407V19.8148C8.25293 22.0509 10.064 23.8657 12.2955 23.8657H22.7047C24.9362 23.8657 26.7473 22.0509 26.7473 19.8148V15.2407ZM21.023 17.6482L16.3705 19.9491C16.1903 20.0463 15.5527 19.9167 15.5527 19.7083V14.9907C15.5527 14.7824 16.1949 14.6482 16.3751 14.7546L20.8243 17.1759C21.0091 17.2824 21.2124 17.5509 21.0276 17.6528L21.023 17.6482Z" fill="#404956"/>
<path d="M17.5023 0.180542C7.95712 0.180542 0.190674 7.96295 0.190674 17.5278C0.190674 27.0926 7.95712 34.875 17.5023 34.875C27.0475 34.875 34.814 27.0926 34.814 17.5278C34.814 7.96295 27.0475 0.180542 17.5023 0.180542ZM17.5023 32.6481C9.18146 32.6481 2.40834 25.8657 2.40834 17.5231C2.40834 9.18054 9.17684 2.40739 17.5023 2.40739C25.8278 2.40739 32.5963 9.1898 32.5963 17.5278C32.5963 25.8657 25.8278 32.6528 17.5023 32.6528V32.6481Z" fill="#404956"/>
</svg>
